<svg version="1.1" id="Layer_1" xmlns="http://www.w3.org/2000/svg" xmlns:xlink="http://www.w3.org/1999/xlink" x="0px" y="0px"
    viewBox="0 0 512 512" style="enable-background:new 0 0 512 512;" xml:space="preserve">
<title>Yollerhorn</title>
<g id="yollerhorn">
   <path d="M265.4,302.1c0,64.4,42.4,122.9,110.2,122.9c54.3,0,98.3-44,98.3-98.3l0,0c0-43.4-35.2-78.6-78.6-78.6
      c-2.5,0-4.9,0.1-7.4,0.4v-13.2c3.1-0.4,6.2-0.7,9.3-0.7c58.5,0,105.9,47.4,105.9,105.9c0,94.7-76.7,171.4-171.4,171.4
      c-149.8,0-250-109.5-279.6-266.9l-0.2-1C33.5,149.9,39.1,18.9,39.1,18.9C38.4,9,170.7-15.3,203.4,48.2
      c30.8,59.8,107.1,44.3,107.1,44.3S265.4,169.1,265.4,302.1z"/>
</g>
</svg>
