<?xml version="1.0" encoding="utf-8"?>
<!-- Generator: Adobe Illustrator 21.0.0, SVG Export Plug-In . SVG Version: 6.00 Build 0)  -->
<svg version="1.1" id="logo" xmlns="http://www.w3.org/2000/svg" xmlns:xlink="http://www.w3.org/1999/xlink" x="0px" y="0px"
	 viewBox="0 0 1024 1024" style="enable-background:new 0 0 1024 1024;" xml:space="preserve">
<style type="text/css">
	.st0{fill:#FFFFFF;}
</style>
<title>tumblr-logo-white</title>
<path class="st0" d="M796.3,939.7c-33,35.3-109.6,59.2-178.1,60.3h-7.5c-230.3,0-280.3-169.3-280.3-268.1V457.4h-90.7
	c-10.5,0-19-8.5-19-19c0,0,0,0,0,0V308.7c0-13.7,8.6-25.9,21.5-30.4C360.4,236.6,397.5,133.5,403,55.1c1.5-21,12.4-31.1,30.6-31.1
	h135.2c10.5,0,19,8.5,19,19v219.6h158.3c10.5,0,19,8.5,19,19v155.8c0,10.5-8.5,19-19,19h-159v253.9c0,63.8,42,81.3,68,81.3
	c24.9-0.6,49.4-8.2,61.7-13.1c9.1-3.7,17.1-6.1,24.3-4.3c6.7,1.7,11.1,6.4,14,15L797,911.7C800.4,921.5,803.4,932.1,796.3,939.7z"/>
</svg>
